<svg width="26" height="44" viewBox="0 0 26 44" fill="none" xmlns="http://www.w3.org/2000/svg">
    <path
        d="M1.14366 1.14541C1.506 0.782318 1.9364 0.494256 2.41021 0.297712C2.88402 0.101168 3.39195 0 3.90491 0C4.41787 0 4.92579 0.101168 5.3996 0.297712C5.87341 0.494256 6.30381 0.782318 6.66616 1.14541L24.6437 19.1229C25.0067 19.4853 25.2948 19.9156 25.4914 20.3895C25.6879 20.8633 25.7891 21.3712 25.7891 21.8842C25.7891 22.3971 25.6879 22.905 25.4914 23.3789C25.2948 23.8527 25.0067 24.2831 24.6437 24.6454L6.66616 42.6229C6.30354 42.9855 5.87306 43.2732 5.39928 43.4694C4.92551 43.6656 4.41772 43.7667 3.90491 43.7667C3.3921 43.7667 2.88431 43.6656 2.41053 43.4694C1.93675 43.2732 1.50627 42.9855 1.14366 42.6229C0.781044 42.2603 0.493406 41.8298 0.297161 41.356C0.100918 40.8823 -9.15527e-05 40.3745 -9.15527e-05 39.8617C-9.15527e-05 39.3488 0.100918 38.8411 0.297161 38.3673C0.493406 37.8935 0.781044 37.463 1.14366 37.1004L16.3403 21.8646L1.14366 6.66791C-0.383842 5.14041 -0.344677 2.63374 1.14366 1.14541Z"
        fill="#975a86" />
</svg>