<svg width="41" height="36" viewBox="0 0 41 36" fill="none" xmlns="http://www.w3.org/2000/svg">
<path d="M20.6631 29.7202L20.4585 29.9113L20.2334 29.7202C10.5157 21.4826 4.0917 16.0355 4.0917 10.512C4.0917 6.68942 7.16047 3.82253 11.2522 3.82253C14.4028 3.82253 17.4716 5.73379 18.5559 8.33311H22.3611C23.4454 5.73379 26.5142 3.82253 29.6648 3.82253C33.7565 3.82253 36.8253 6.68942 36.8253 10.512C36.8253 16.0355 30.4013 21.4826 20.6631 29.7202ZM29.6648 0C26.105 0 22.6885 1.54812 20.4585 3.97543C18.2285 1.54812 14.8119 0 11.2522 0C4.95096 0 0 4.60615 0 10.512C0 17.7174 6.95589 23.6232 17.492 32.5488L20.4585 35.0717L23.425 32.5488C33.9611 23.6232 40.917 17.7174 40.917 10.512C40.917 4.60615 35.966 0 29.6648 0Z" fill="white"/>
</svg>
